<svg width="36" height="26" viewBox="0 0 36 26" fill="none" xmlns="http://www.w3.org/2000/svg">
<path d="M36 0C33.6794 2.45058 31.6641 5.02069 29.9542 7.71035C28.2443 10.4 27.1756 12.7609 26.7481 14.7931L25.6489 14.0759C25.9542 13.8966 26.2901 13.777 26.6565 13.7172C27.0229 13.6575 27.4198 13.6276 27.8473 13.6276C29.8626 13.6276 31.4198 14.1954 32.5191 15.331C33.6183 16.4069 34.1679 17.8115 34.1679 19.5448C34.1679 21.4575 33.5267 23.0115 32.2443 24.2069C31.0229 25.4023 29.3435 26 27.2061 26C25.1298 26 23.3893 25.3126 21.9847 23.9379C20.6412 22.5035 19.9695 20.5609 19.9695 18.1103C19.9695 16.5563 20.2137 14.9126 20.7023 13.1793C21.2519 11.446 21.9542 9.74253 22.8092 8.06897C23.6641 6.39541 24.5802 4.87127 25.5573 3.49655C26.5954 2.12184 27.6336 0.956324 28.6718 0H36ZM16.0305 0C13.6489 2.45058 11.6031 5.02069 9.89313 7.71035C8.18321 10.4 7.1145 12.7609 6.68702 14.7931L5.67939 14.0759C5.98473 13.8966 6.29008 13.777 6.59542 13.7172C6.96183 13.6575 7.38931 13.6276 7.87786 13.6276C9.89313 13.6276 11.4504 14.1954 12.5496 15.331C13.6489 16.4069 14.1985 17.8115 14.1985 19.5448C14.1985 21.4575 13.5573 23.0115 12.2748 24.2069C10.9924 25.4023 9.31298 26 7.23664 26C5.16031 26 3.41985 25.3126 2.01527 23.9379C0.671756 22.5035 0 20.5609 0 18.1103C0 16.5563 0.244275 14.9126 0.732825 13.1793C1.22137 11.446 1.89313 9.74253 2.74809 8.06897C3.60305 6.39541 4.54962 4.87127 5.58779 3.49655C6.62595 2.12184 7.66412 0.956324 8.70229 0H16.0305Z" fill="white"/>
</svg>
